# xmcd
#
# Track frame offsets:
#	150
#	19247
#	40327
#	58827
#	76407
#	100714
#
# Disc length: 1640 seconds
#
# Revision: 0
# Processed by: cddbd v1.5.2PL0 Copyright (c) Steve Scherf et al.
# Submitted via: audiograbber 1.83.01
#
DISCID=45066606
DTITLE=The Kid Carsons - Settle Down
DYEAR=2012
DGENRE=Country
TTITLE0=Chicago
TTITLE1=Even So
TTITLE2=Oh My God
TTITLE3=Man In The Mirror
TTITLE4=The Weight
TTITLE5=Settle Down (Low As You Can)
EXTD=
EXTT0=
EXTT1=
EXTT2=
EXTT3=
EXTT4=
EXTT5=
PLAYORDER=
